<svg width="117" height="42" viewBox="0 0 117 42" fill="none" xmlns="http://www.w3.org/2000/svg">
<path fill-rule="evenodd" clip-rule="evenodd" d="M16.75 25.3954H12.4V30.0838H9.65H7.2C6.15 30.0838 5.4 29.8884 5.05 29.4977C4.7 29.107 4.5 28.5699 4.5 27.8373V24.614C4.5 23.8814 4.7 23.3443 5.05 22.9536C5.4 22.5629 6.15 22.3675 7.2 22.3675H9.65H12.4H16.75V19.1443H11.65H5.2C3.24999 19.1443 1.9 19.4861 1.15 20.1698C0.400001 20.8535 0 21.8792 0 23.2466V29.3024C0 30.6699 0.400001 31.6954 1.15 32.3791C1.9 33.0628 3.24999 33.4047 5.2 33.4047H11.65H16.75V25.3954Z" fill="#FF000D"/>
<path fill-rule="evenodd" clip-rule="evenodd" d="M29.4496 25.1513V22.3187H32.1496H34.5996C35.7496 22.3187 36.4996 22.5141 36.8496 22.8559C37.1996 23.1978 37.3496 23.4908 37.3496 23.735C37.3496 23.9792 37.1996 24.2722 36.8496 24.6141C36.4996 24.9559 35.7496 25.1513 34.5996 25.1513H29.4496ZM37.0996 28.3745H37.7496C38.9996 28.3745 39.9496 28.0327 40.6996 27.3001C41.3996 26.6164 41.7996 25.5908 41.7996 24.2722V23.7838V23.149C41.7996 21.8304 41.4496 20.8048 40.6996 20.1211C39.9996 19.4373 38.6496 19.0466 36.6996 19.0466H30.2496H25.0996V33.3071H29.4496V28.3745H32.1496L37.0496 33.3071H41.9996L37.0996 28.3745ZM66.7996 29.2048V23.149C66.7996 21.8304 66.4496 20.8048 65.6996 20.1211C64.9996 19.4373 63.6496 19.0466 61.6996 19.0466H55.2496C53.2996 19.0466 51.9496 19.3885 51.1996 20.0722C50.4496 20.7559 50.0496 21.7815 50.0496 23.149V29.2048C50.0496 30.5722 50.4496 31.5978 51.1996 32.2815C51.9496 32.9652 53.2996 33.3071 55.2496 33.3071H61.6996C63.6496 33.3071 64.9996 32.9652 65.6996 32.2327C66.4496 31.549 66.7996 30.5234 66.7996 29.2048ZM62.3996 27.8373C62.3496 28.6187 62.1996 29.1559 61.8496 29.5466C61.5496 29.8885 60.7996 30.0838 59.6496 30.0838H57.1996C56.1496 30.0838 55.3996 29.8885 55.0496 29.4978C54.6996 29.1071 54.4996 28.5699 54.4996 27.8373V24.6141C54.4996 23.8815 54.6996 23.3443 55.0496 22.9536C55.3996 22.5629 56.1496 22.3676 57.1996 22.3676H59.6496C60.7996 22.3676 61.5496 22.5629 61.8996 22.9048C62.2496 23.2466 62.3996 23.8327 62.3996 24.6141V27.8373ZM104.55 25.1513V22.3187H107.25H109.7C110.85 22.3187 111.6 22.5141 111.95 22.8559C112.3 23.1978 112.45 23.4908 112.45 23.735C112.45 23.9792 112.3 24.2722 111.95 24.6141C111.6 24.9559 110.85 25.1513 109.7 25.1513H104.55ZM91.8496 19.0466V29.2048C91.8496 30.5234 91.4996 31.549 90.7496 32.2327C90.0496 32.9164 88.6996 33.3071 86.7496 33.3071H80.2996C78.3496 33.3071 76.9996 32.9652 76.2496 32.2815C75.4996 31.5978 75.0996 30.5722 75.0996 29.2048V19.0466H77.2996H79.4996V27.7885C79.4996 28.5211 79.6996 29.0583 80.0496 29.449C80.3996 29.8397 81.1496 30.035 82.1996 30.035H84.6496C85.7996 30.035 86.5496 29.8397 86.8996 29.4978C87.2496 29.1559 87.3996 28.5699 87.3996 27.7885V19.0466H91.8496ZM104.55 28.3745H107.25H109.2H111.75C113.7 28.3745 115.05 28.0327 115.75 27.3001C116.45 26.6164 116.85 25.5908 116.85 24.2722V23.7838V23.149C116.85 21.8304 116.5 20.8048 115.75 20.1211C115.05 19.4373 113.7 19.0466 111.75 19.0466H105.3H100.15V23.149V29.2048V33.3071H104.5V28.3745H104.55Z" fill="#FF000D"/>
<path fill-rule="evenodd" clip-rule="evenodd" d="M73.15 14.2116H68.75V4.34644H73.15V10.4022V14.2116Z" fill="#FF000D"/>
<path fill-rule="evenodd" clip-rule="evenodd" d="M43.75 14.2116V0H48.85H55.3C57.25 0 58.6 0.341861 59.35 1.02558C60.1 1.7093 60.5 2.73488 60.5 4.10232V10.1093C60.5 11.4767 60.1 12.5023 59.35 13.186C58.6 13.8698 57.25 14.2116 55.3 14.2116H48.85H43.75ZM48.1 3.22326V10.9884H50.85H53.3C54.35 10.9884 55.1 10.793 55.45 10.4023C55.8 10.0116 56 9.47442 56 8.74186V5.5186C56 4.78605 55.8 4.24884 55.45 3.85814C55.1 3.46744 54.35 3.27209 53.3 3.27209H50.85H48.1V3.22326Z" fill="#FF000D"/>
<path fill-rule="evenodd" clip-rule="evenodd" d="M73.15 3.22326H68.75V0H73.15V1.95349V3.22326Z" fill="#FF000D"/>
<path fill-rule="evenodd" clip-rule="evenodd" d="M0.0498047 40.4372H0.949807V38.9233H2.69981V40.4861H3.59981V36.6279H2.69981V38.1907H0.949807V36.6279H0.0498047V40.4372ZM7.39982 40.5349C8.09982 40.5349 8.64982 40.2419 8.99982 39.8023L8.44982 39.3628C8.14982 39.6558 7.79982 39.8023 7.39982 39.8023C6.79982 39.8023 6.34982 39.4605 6.24982 38.8256H9.14982C9.14982 38.7768 9.14982 38.6302 9.14982 38.5814C9.14982 37.4582 8.49982 36.5302 7.24982 36.5302C6.09982 36.5302 5.29982 37.4582 5.29982 38.5326C5.39982 39.7535 6.24982 40.5349 7.39982 40.5349ZM6.29982 38.2884C6.39982 37.7023 6.74982 37.2628 7.29982 37.2628C7.89982 37.2628 8.24982 37.7023 8.29982 38.2884H6.29982ZM10.5498 41.3651H11.2998L11.3998 40.4372H14.1498V41.3651H14.8998L14.9998 39.7047H14.4498V36.6279H11.3998V37.1163C11.3998 38.1907 11.2998 39.0698 10.9498 39.7535H10.4998V41.3651H10.5498ZM11.8998 39.7047C12.1498 39.2163 12.2498 38.5814 12.2498 37.8977V37.4093H13.5498V39.7535H11.8998V39.7047ZM16.6498 40.4372H18.6998C19.5998 40.4372 20.1498 40.0465 20.1498 39.4116C20.1498 38.8744 19.7998 38.5814 19.3498 38.4349C19.6998 38.2884 19.9998 38.0442 19.9998 37.5558C19.9998 36.9698 19.4998 36.5791 18.6998 36.5791H16.6998V40.4372H16.6498ZM17.5498 39.7535V38.7768H18.5498C19.0498 38.7768 19.2498 38.9721 19.2498 39.2651C19.2498 39.5582 18.9998 39.7535 18.5998 39.7535H17.5498ZM17.5498 38.1907V37.2628H18.4998C18.8998 37.2628 19.0498 37.4582 19.0498 37.7023C19.0498 37.9954 18.8498 38.1907 18.4498 38.1907H17.5498ZM21.9498 40.4372H22.7998L24.6498 37.8488V40.4372H25.4998V36.5791H24.6498C23.9998 37.4582 23.3998 38.2884 22.7998 39.1675V36.5791H21.8998V40.4372H21.9498ZM27.0498 40.4372H28.0498L29.1998 38.7768L29.7998 39.4605V40.4372H30.6998V39.4605L31.2998 38.7768L32.4498 40.4372H33.4498L31.8998 38.1907L33.3998 36.5791H32.3498L30.6998 38.4837V36.5791H29.7998V38.4837L28.1498 36.5791H27.0998L28.5998 38.1907L27.0498 40.4372ZM34.9498 40.4372H35.7998L37.6498 37.8488V40.4372H38.4998V36.5791H37.6498C36.9998 37.4582 36.3998 38.2884 35.7998 39.1675V36.5791H34.8998V40.4372H34.9498ZM40.5498 40.4372H41.4498V37.8977L42.6998 39.607L43.9498 37.8977V40.4861H44.8498V36.6279H43.9498L42.6998 38.4349L41.4498 36.6279H40.5498V40.4372ZM48.6998 40.5349C49.8998 40.5349 50.7998 39.607 50.7998 38.5326C50.7998 37.4093 49.8998 36.5302 48.6998 36.5302C47.4998 36.5302 46.5998 37.4582 46.5998 38.5326C46.5998 39.6558 47.4998 40.5349 48.6998 40.5349ZM48.6998 39.8023C47.9998 39.8023 47.4998 39.2163 47.4998 38.5814C47.4998 37.8977 47.9498 37.3605 48.6998 37.3605C49.3998 37.3605 49.8998 37.8977 49.8998 38.5814C49.8998 39.2163 49.4498 39.8023 48.6998 39.8023ZM54.4498 40.5349C55.1998 40.5349 55.6498 40.2419 56.0498 39.8023L55.4998 39.2651C55.1998 39.5582 54.8998 39.7535 54.4998 39.7535C53.7998 39.7535 53.2998 39.2163 53.2998 38.5326C53.2998 37.8489 53.7998 37.3116 54.4498 37.3116C54.8998 37.3116 55.1998 37.507 55.4498 37.8L55.9998 37.214C55.6498 36.8233 55.1498 36.5302 54.4498 36.5302C53.2498 36.5302 52.3998 37.4582 52.3998 38.5326C52.3998 39.6558 53.2498 40.5349 54.4498 40.5349ZM58.5498 40.4372H59.4498V37.3605H60.6998V36.5791H57.2498V37.3605H58.4998V40.4372H58.5498ZM62.3498 40.4372H64.1998C65.1498 40.4372 65.6998 39.9488 65.6998 39.1675C65.6998 38.3372 64.9998 37.9465 64.1498 37.9465H63.2498V36.5791H62.3498V40.4372ZM63.2498 39.7535V38.6302H64.0998C64.5498 38.6302 64.8498 38.8256 64.8498 39.1675C64.8498 39.5581 64.5998 39.7535 64.1498 39.7535H63.2498ZM69.5998 40.4372H70.4498L72.2998 37.8488V40.4372H73.1498V36.5791H72.2998C71.6498 37.4582 71.0498 38.2884 70.4498 39.1675V36.5791H69.5998V40.4372ZM79.7498 41.6093H80.6498V40.1442C80.8498 40.3395 81.1498 40.4861 81.5498 40.4861C82.4998 40.4861 83.1498 39.7535 83.1498 38.5326C83.1498 37.2628 82.4998 36.5302 81.5498 36.5302C81.1498 36.5302 80.8498 36.7256 80.6498 36.9209V35.3582H79.7498V36.9209C79.5498 36.7256 79.2498 36.5302 78.8498 36.5302C77.8998 36.5302 77.2498 37.2628 77.2498 38.5326C77.2498 39.8023 77.8998 40.5349 78.8498 40.5349C79.2498 40.5349 79.5498 40.3884 79.7498 40.193V41.6093ZM79.1498 39.8023C78.4998 39.8023 78.1998 39.314 78.1998 38.5814C78.1998 37.8488 78.5498 37.3116 79.1498 37.3116C79.3998 37.3116 79.5998 37.4093 79.7998 37.6047V39.5582C79.5998 39.7047 79.3998 39.8023 79.1498 39.8023ZM81.2998 39.8023C81.0498 39.8023 80.8498 39.7047 80.6498 39.5582V37.6047C80.8498 37.4582 81.0498 37.3116 81.2998 37.3116C81.9498 37.3116 82.2498 37.8 82.2498 38.5326C82.2498 39.314 81.9498 39.8023 81.2998 39.8023ZM84.9998 40.4372H85.8498L87.6998 37.8488V40.4372H88.5498V36.5791H87.6998C87.0498 37.4582 86.4498 38.2884 85.8498 39.1675V36.5791H84.9498V40.4372H84.9998ZM90.5998 40.4372H91.4998V38.9233H93.2498V40.4861H94.1498V36.6279H93.2498V38.1907H91.4998V36.6279H90.5998V40.4372ZM99.4498 40.4372V38.1419C99.4498 37.1163 98.8998 36.5302 97.6998 36.5302C97.0498 36.5302 96.6498 36.6768 96.1998 36.8721L96.4498 37.5558C96.7998 37.4093 97.1498 37.3116 97.5998 37.3116C98.2498 37.3116 98.5498 37.6047 98.5498 38.1419V38.1907C98.2498 38.093 97.9498 38.0442 97.4498 38.0442C96.5498 38.0442 95.8498 38.4349 95.8498 39.314C95.8498 40.0954 96.4998 40.5349 97.2498 40.5349C97.8498 40.5349 98.2498 40.2907 98.5498 39.9977V40.4861H99.4498V40.4372ZM98.5998 39.0698C98.5998 39.5582 98.1498 39.9 97.5498 39.9C97.0998 39.9 96.7998 39.7047 96.7998 39.314C96.7998 38.9233 97.1498 38.6791 97.6998 38.6791C98.0498 38.6791 98.3498 38.7279 98.5998 38.8256V39.0698ZM101.4 40.4372H102.3V38.9233H104.05V40.4861H104.95V36.6279H104.05V38.1907H102.3V36.6279H101.4V40.4372ZM108.8 40.5349C109.55 40.5349 110 40.2419 110.4 39.8023L109.85 39.2651C109.55 39.5582 109.25 39.7535 108.85 39.7535C108.15 39.7535 107.65 39.2163 107.65 38.5326C107.65 37.8489 108.15 37.3116 108.8 37.3116C109.25 37.3116 109.55 37.507 109.8 37.8L110.35 37.214C110 36.8233 109.5 36.5302 108.8 36.5302C107.6 36.5302 106.75 37.4582 106.75 38.5326C106.75 39.6558 107.6 40.5349 108.8 40.5349ZM112.05 40.4372H113.85C114.8 40.4372 115.35 39.9488 115.35 39.1675C115.35 38.3372 114.65 37.9465 113.8 37.9465H112.95V36.5791H112.05V40.4372ZM112.95 39.7535V38.6302H113.7C114.15 38.6302 114.45 38.8256 114.45 39.1675C114.45 39.5581 114.2 39.7535 113.75 39.7535H112.95ZM115.95 40.4372H116.85V36.5791H115.95V40.4372Z" fill="black"/>
</svg>
