<svg width="83" height="30" viewBox="0 0 83 30" fill="none" xmlns="http://www.w3.org/2000/svg">
<path fill-rule="evenodd" clip-rule="evenodd" d="M11.8825 18.1394H8.79658V21.4883H6.84573H5.10769C4.36282 21.4883 3.83077 21.3487 3.58248 21.0696C3.33418 20.7906 3.19231 20.4069 3.19231 19.8836V17.5813C3.19231 17.058 3.33418 16.6743 3.58248 16.3952C3.83077 16.1162 4.36282 15.9766 5.10769 15.9766H6.84573H8.79658H11.8825V13.6743H8.26453H3.68889C2.30555 13.6743 1.34786 13.9185 0.815812 14.4068C0.283762 14.8952 0 15.6278 0 16.6045V20.9301C0 21.9069 0.283762 22.6394 0.815812 23.1278C1.34786 23.6161 2.30555 23.8603 3.68889 23.8603H8.26453H11.8825V18.1394Z" fill="#FF000D"/>
<path fill-rule="evenodd" clip-rule="evenodd" d="M20.8925 17.9652V15.9419H22.8079H24.546C25.3618 15.9419 25.8938 16.0815 26.1421 16.3257C26.3904 16.5699 26.4968 16.7792 26.4968 16.9536C26.4968 17.128 26.3904 17.3373 26.1421 17.5815C25.8938 17.8257 25.3618 17.9652 24.546 17.9652H20.8925ZM26.3195 20.2675H26.7806C27.6673 20.2675 28.3413 20.0233 28.8733 19.5001C29.3699 19.0117 29.6536 18.2792 29.6536 17.3373V16.9885V16.535C29.6536 15.5931 29.4054 14.8606 28.8733 14.3722C28.3767 13.8838 27.419 13.6047 26.0357 13.6047H21.4601H17.8066V23.7908H20.8925V20.2675H22.8079L26.284 23.7908H29.7955L26.3195 20.2675ZM47.3887 20.8606V16.535C47.3887 15.5931 47.1404 14.8606 46.6083 14.3722C46.1118 13.8838 45.1541 13.6047 43.7707 13.6047H39.1951C37.8118 13.6047 36.8541 13.8489 36.322 14.3373C35.79 14.8257 35.5062 15.5582 35.5062 16.535V20.8606C35.5062 21.8373 35.79 22.5699 36.322 23.0582C36.8541 23.5466 37.8118 23.7908 39.1951 23.7908H43.7707C45.1541 23.7908 46.1118 23.5466 46.6083 23.0233C47.1404 22.535 47.3887 21.8024 47.3887 20.8606ZM44.2673 19.8838C44.2319 20.4419 44.1254 20.8257 43.8772 21.1047C43.6643 21.3489 43.1323 21.4885 42.3165 21.4885H40.5784C39.8336 21.4885 39.3015 21.3489 39.0532 21.0699C38.8049 20.7908 38.6631 20.4071 38.6631 19.8838V17.5815C38.6631 17.0582 38.8049 16.6745 39.0532 16.3954C39.3015 16.1164 39.8336 15.9768 40.5784 15.9768H42.3165C43.1323 15.9768 43.6643 16.1164 43.9126 16.3606C44.1609 16.6047 44.2673 17.0233 44.2673 17.5815V19.8838ZM74.1686 17.9652V15.9419H76.084H77.822C78.6378 15.9419 79.1699 16.0815 79.4182 16.3257C79.6665 16.5699 79.7729 16.7792 79.7729 16.9536C79.7729 17.128 79.6665 17.3373 79.4182 17.5815C79.1699 17.8257 78.6378 17.9652 77.822 17.9652H74.1686ZM65.1592 13.6047V20.8606C65.1592 21.8024 64.9109 22.535 64.3789 23.0233C63.8823 23.5117 62.9246 23.7908 61.5413 23.7908H56.9656C55.5823 23.7908 54.6246 23.5466 54.0925 23.0582C53.5605 22.5699 53.2767 21.8373 53.2767 20.8606V13.6047H54.8374H56.3981V19.8489C56.3981 20.3722 56.54 20.7559 56.7883 21.035C57.0366 21.314 57.5686 21.4536 58.3135 21.4536H60.0515C60.8673 21.4536 61.3994 21.314 61.6477 21.0699C61.896 20.8257 62.0024 20.4071 62.0024 19.8489V13.6047H65.1592ZM74.1686 20.2675H76.084H77.4673H79.2763C80.6596 20.2675 81.6173 20.0233 82.1139 19.5001C82.6105 19.0117 82.8942 18.2792 82.8942 17.3373V16.9885V16.535C82.8942 15.5931 82.646 14.8606 82.1139 14.3722C81.6173 13.8838 80.6596 13.6047 79.2763 13.6047H74.7007H71.0472V16.535V20.8606V23.7908H74.1331V20.2675H74.1686Z" fill="#FF000D"/>
<path fill-rule="evenodd" clip-rule="evenodd" d="M51.8929 10.151H48.7715V3.10449H51.8929V7.43007V10.151Z" fill="#FF000D"/>
<path fill-rule="evenodd" clip-rule="evenodd" d="M31.0371 10.1512V0H34.6551H39.2307C40.614 0 41.5717 0.244187 42.1038 0.732558C42.6358 1.22093 42.9196 1.95349 42.9196 2.93023V7.22093C42.9196 8.19767 42.6358 8.93023 42.1038 9.4186C41.5717 9.90697 40.614 10.1512 39.2307 10.1512H34.6551H31.0371ZM34.123 2.30233V7.84884H36.0739H37.8119C38.5568 7.84884 39.0888 7.7093 39.3371 7.43023C39.5854 7.15116 39.7273 6.76744 39.7273 6.24418V3.94186C39.7273 3.4186 39.5854 3.03488 39.3371 2.75581C39.0888 2.47674 38.5568 2.33721 37.8119 2.33721H36.0739H34.123V2.30233Z" fill="#FF000D"/>
<path fill-rule="evenodd" clip-rule="evenodd" d="M51.8929 2.30233H48.7715V0H51.8929V1.39535V2.30233Z" fill="#FF000D"/>
<path fill-rule="evenodd" clip-rule="evenodd" d="M0.0371094 28.8838H0.675572V27.8024H1.91703V28.9186H2.55549V26.1628H1.91703V27.2791H0.675572V26.1628H0.0371094V28.8838ZM5.25122 28.9535C5.7478 28.9535 6.13797 28.7442 6.38626 28.4303L5.99609 28.1163C5.78327 28.3256 5.53498 28.4303 5.25122 28.4303C4.82558 28.4303 4.50635 28.1861 4.43541 27.7326H6.49267C6.49267 27.6977 6.49267 27.5931 6.49267 27.5582C6.49267 26.7559 6.03156 26.0931 5.14481 26.0931C4.329 26.0931 3.76148 26.7559 3.76148 27.5233C3.83242 28.3954 4.43541 28.9535 5.25122 28.9535ZM4.47088 27.3489C4.54182 26.9303 4.79011 26.6163 5.18028 26.6163C5.60592 26.6163 5.85421 26.9303 5.88968 27.3489H4.47088ZM7.48584 29.5466H8.01789L8.08883 28.8838H10.0397V29.5466H10.5717L10.6427 28.3605H10.2525V26.1628H8.08883V26.5117C8.08883 27.2791 8.01789 27.907 7.7696 28.3954H7.45037V29.5466H7.48584ZM8.44353 28.3605C8.62088 28.0117 8.69182 27.5582 8.69182 27.0698V26.721H9.61404V28.3954H8.44353V28.3605ZM11.8132 28.8838H13.2675C13.9059 28.8838 14.2961 28.6047 14.2961 28.1512C14.2961 27.7675 14.0478 27.5582 13.7286 27.4535C13.9769 27.3489 14.1897 27.1745 14.1897 26.8256C14.1897 26.407 13.835 26.128 13.2675 26.128H11.8487V28.8838H11.8132ZM12.4516 28.3954V27.6977H13.161C13.5157 27.6977 13.6576 27.8373 13.6576 28.0466C13.6576 28.2559 13.4803 28.3954 13.1965 28.3954H12.4516ZM12.4516 27.2791V26.6163H13.1256C13.4093 26.6163 13.5157 26.7559 13.5157 26.9303C13.5157 27.1396 13.3739 27.2791 13.0901 27.2791H12.4516ZM15.573 28.8838H16.176L17.4884 27.0349V28.8838H18.0914V26.128H17.4884C17.0273 26.7559 16.6016 27.3489 16.176 27.9768V26.128H15.5375V28.8838H15.573ZM19.191 28.8838H19.9004L20.7162 27.6977L21.1418 28.1861V28.8838H21.7803V28.1861L22.2059 27.6977L23.0217 28.8838H23.7311L22.6316 27.2791L23.6957 26.128H22.9508L21.7803 27.4884V26.128H21.1418V27.4884L19.9713 26.128H19.2264L20.2905 27.2791L19.191 28.8838ZM24.7952 28.8838H25.3982L26.7106 27.0349V28.8838H27.3136V26.128H26.7106C26.2495 26.7559 25.8239 27.3489 25.3982 27.9768V26.128H24.7598V28.8838H24.7952ZM28.7679 28.8838H29.4063V27.0698L30.2931 28.2907L31.1799 27.0698V28.9186H31.8183V26.1628H31.1799L30.2931 27.4535L29.4063 26.1628H28.7679V28.8838ZM34.5495 28.9535C35.4008 28.9535 36.0393 28.2907 36.0393 27.5233C36.0393 26.721 35.4008 26.0931 34.5495 26.0931C33.6982 26.0931 33.0598 26.7559 33.0598 27.5233C33.0598 28.3256 33.6982 28.9535 34.5495 28.9535ZM34.5495 28.4303C34.0529 28.4303 33.6982 28.0117 33.6982 27.5582C33.6982 27.0698 34.0175 26.6861 34.5495 26.6861C35.0461 26.6861 35.4008 27.0698 35.4008 27.5582C35.4008 28.0117 35.0816 28.4303 34.5495 28.4303ZM38.6286 28.9535C39.1606 28.9535 39.4799 28.7442 39.7636 28.4303L39.3734 28.0466C39.1606 28.2559 38.9478 28.3954 38.664 28.3954C38.1675 28.3954 37.8128 28.0117 37.8128 27.5233C37.8128 27.0349 38.1675 26.6512 38.6286 26.6512C38.9478 26.6512 39.1606 26.7907 39.338 27L39.7281 26.5814C39.4799 26.3024 39.1252 26.0931 38.6286 26.0931C37.7773 26.0931 37.1743 26.7559 37.1743 27.5233C37.1743 28.3256 37.7773 28.9535 38.6286 28.9535ZM41.5371 28.8838H42.1756V26.6861H43.0623V26.128H40.6149V26.6861H41.5016V28.8838H41.5371ZM44.2328 28.8838H45.5452C46.2192 28.8838 46.6093 28.5349 46.6093 27.9768C46.6093 27.3838 46.1128 27.1047 45.5098 27.1047H44.8713V26.128H44.2328V28.8838ZM44.8713 28.3954V27.5931H45.4743C45.7935 27.5931 46.0063 27.7326 46.0063 27.9768C46.0063 28.2559 45.829 28.3954 45.5098 28.3954H44.8713ZM49.376 28.8838H49.979L51.2914 27.0349V28.8838H51.8944V26.128H51.2914C50.8303 26.7559 50.4046 27.3489 49.979 27.9768V26.128H49.376V28.8838ZM56.5764 29.721H57.2149V28.6745C57.3568 28.814 57.5696 28.9186 57.8534 28.9186C58.5273 28.9186 58.9884 28.3954 58.9884 27.5233C58.9884 26.6163 58.5273 26.0931 57.8534 26.0931C57.5696 26.0931 57.3568 26.2326 57.2149 26.3721V25.2559H56.5764V26.3721C56.4346 26.2326 56.2217 26.0931 55.938 26.0931C55.264 26.0931 54.8029 26.6163 54.8029 27.5233C54.8029 28.4303 55.264 28.9535 55.938 28.9535C56.2217 28.9535 56.4346 28.8489 56.5764 28.7093V29.721ZM56.1508 28.4303C55.6897 28.4303 55.4769 28.0814 55.4769 27.5582C55.4769 27.0349 55.7252 26.6512 56.1508 26.6512C56.3281 26.6512 56.47 26.721 56.6119 26.8605V28.2559C56.47 28.3605 56.3281 28.4303 56.1508 28.4303ZM57.676 28.4303C57.4987 28.4303 57.3568 28.3605 57.2149 28.2559V26.8605C57.3568 26.7559 57.4987 26.6512 57.676 26.6512C58.1371 26.6512 58.3499 27 58.3499 27.5233C58.3499 28.0814 58.1371 28.4303 57.676 28.4303ZM60.3008 28.8838H60.9038L62.2162 27.0349V28.8838H62.8192V26.128H62.2162C61.7551 26.7559 61.3294 27.3489 60.9038 27.9768V26.128H60.2653V28.8838H60.3008ZM64.2734 28.8838H64.9119V27.8024H66.1534V28.9186H66.7918V26.1628H66.1534V27.2791H64.9119V26.1628H64.2734V28.8838ZM70.5517 28.8838V27.2442C70.5517 26.5117 70.1615 26.0931 69.3102 26.0931C68.8491 26.0931 68.5653 26.1977 68.2461 26.3373L68.4234 26.8256C68.6717 26.721 68.92 26.6512 69.2393 26.6512C69.7004 26.6512 69.9132 26.8605 69.9132 27.2442V27.2791C69.7004 27.2093 69.4875 27.1745 69.1328 27.1745C68.4944 27.1745 67.9978 27.4535 67.9978 28.0814C67.9978 28.6396 68.4589 28.9535 68.991 28.9535C69.4166 28.9535 69.7004 28.7791 69.9132 28.5698V28.9186H70.5517V28.8838ZM69.9487 27.907C69.9487 28.2559 69.6294 28.5 69.2038 28.5C68.8846 28.5 68.6717 28.3605 68.6717 28.0814C68.6717 27.8024 68.92 27.6279 69.3102 27.6279C69.5585 27.6279 69.7713 27.6628 69.9487 27.7326V27.907ZM71.935 28.8838H72.5734V27.8024H73.8149V28.9186H74.4534V26.1628H73.8149V27.2791H72.5734V26.1628H71.935V28.8838ZM77.1846 28.9535C77.7166 28.9535 78.0358 28.7442 78.3196 28.4303L77.9294 28.0466C77.7166 28.2559 77.5038 28.3954 77.22 28.3954C76.7234 28.3954 76.3687 28.0117 76.3687 27.5233C76.3687 27.0349 76.7234 26.6512 77.1846 26.6512C77.5038 26.6512 77.7166 26.7907 77.894 27L78.2841 26.5814C78.0358 26.3024 77.6811 26.0931 77.1846 26.0931C76.3333 26.0931 75.7303 26.7559 75.7303 27.5233C75.7303 28.3256 76.3333 28.9535 77.1846 28.9535ZM79.4901 28.8838H80.767C81.441 28.8838 81.8311 28.5349 81.8311 27.9768C81.8311 27.3838 81.3346 27.1047 80.7316 27.1047H80.1286V26.128H79.4901V28.8838ZM80.1286 28.3954V27.5931H80.6606C80.9799 27.5931 81.1927 27.7326 81.1927 27.9768C81.1927 28.2559 81.0153 28.3954 80.6961 28.3954H80.1286ZM82.2568 28.8838H82.8952V26.128H82.2568V28.8838Z" fill="black"/>
</svg>
